<svg width="842" height="702" viewBox="0 0 842 702" fill="none" xmlns="http://www.w3.org/2000/svg">
<path d="M420.801 681.7C604.159 681.7 752.801 533.059 752.801 349.7C752.801 166.342 604.159 17.7002 420.801 17.7002C237.442 17.7002 88.8008 166.342 88.8008 349.7C88.8008 533.059 237.442 681.7 420.801 681.7Z" fill="white"/>
<path d="M570.5 208.4C555.2 205.8 529.2 203.5 498.9 211.2C481.5 215.6 448 224.6 420.8 255.8C388.2 293.2 387.4 336.3 387.3 344.1C387.1 386 406.7 415.9 417.2 429.2C448.6 469.1 491.4 478.2 504.5 480.8C552.1 490.2 589.7 473.8 602.1 467.8C598.5 471.6 593.2 476.8 586.3 482.3C530.9 526.2 460.7 516.4 453.3 515.2C441.6 513.4 387 503.6 346.4 455.7C337.8 445.5 315.8 418.9 309.2 377.6C308.2 371.5 304.3 344.1 313.6 310.6C325.8 266.8 360 214.6 419.8 192.6C474.2 172.6 523 187.4 539.8 193.5C552.9 198.3 563.3 203.9 570.5 208.4Z" fill="#E73339"/>
<path d="M347.301 463.1C347.301 463.1 331.001 445.4 320.301 425.9C296.901 383 301.201 331.9 302.601 318C294.201 317.7 285.901 317.4 277.501 317.1C277.501 327 277.501 336.9 277.501 346.9C270.101 346.9 262.601 346.9 255.201 346.9C255.201 337.3 255.201 327.7 255.201 318.1C242.201 318.1 229.201 318.1 216.101 318.1C216.101 327.4 216.101 336.7 216.101 346C210.801 346 205.601 346 200.301 346C200.001 337 199.701 328 199.401 319C193.101 319.1 188.001 319.1 184.501 319C174.701 318.8 171.701 318.4 166.801 319.9C160.001 322 157.201 325.5 156.601 326.4C155.001 328.5 154.201 330.5 153.801 332C154.401 388.1 155.001 444.2 155.701 500.3C229.801 499.7 303.901 499.1 377.901 498.4C377.901 495.6 377.901 492.8 377.901 490C369.301 483.9 358.401 475.1 347.301 463.1ZM211.601 366.4C213.901 365.1 218.901 362.7 225.501 362.7C233.401 362.7 239.101 365.9 241.301 367.3C241.301 377.5 241.301 387.8 241.301 398C231.401 398 221.501 398 211.501 398C211.601 387.5 211.601 377 211.601 366.4ZM211.601 482.6C211.401 473 211.201 455.8 212.501 438.9C212.701 436.3 213.101 431.5 216.201 426.8C219.601 421.6 226.301 416.5 233.901 416.6C244.101 416.7 250.001 425.3 251.201 427C254.101 431.2 255.001 435.5 255.301 438C255.601 452.9 255.901 467.8 256.201 482.6C241.301 482.6 226.401 482.6 211.601 482.6Z" fill="#2D2D2E"/>
<path d="M548.202 286.5C521.702 275.6 491.102 281.9 471.002 302.3C471.302 287.4 471.602 272.5 471.902 257.7C463.202 257.7 454.502 257.7 445.902 257.7C445.602 278.2 445.302 298.6 445.002 319.1C431.702 319.4 418.302 319.7 405.002 320C404.402 330.5 403.802 341.1 403.102 351.6C466.002 351.6 528.902 351.6 591.902 351.6C591.802 323.1 574.502 297.3 548.202 286.5ZM484.002 344.1C485.402 322.7 504.202 307.5 523.102 309.7C539.302 311.6 552.802 326 553.802 344.1C530.502 344.1 507.302 344.1 484.002 344.1Z" fill="#6D6F6E"/>
<path d="M522.101 263.2C473.101 263.2 433.301 303 433.301 352C433.301 401 473.101 440.8 522.101 440.8C571.101 440.8 610.901 401 610.901 352C610.901 303 571.201 263.2 522.101 263.2ZM521.801 412.1C488.901 412.1 462.201 385.4 462.201 352.5C462.201 319.6 488.901 292.9 521.801 292.9C554.701 292.9 581.401 319.6 581.401 352.5C581.401 385.4 554.701 412.1 521.801 412.1Z" fill="#35997D"/>
<path d="M578.1 210C577.5 207.5 576.7 206.4 575.7 206.4C573.1 206.2 569.5 209.3 569.5 210.2C569.4 212.3 575.4 212.4 577.3 213.7C578.5 214.5 579.2 215.8 579.1 217.7C579 219.3 578.3 221 577.3 222.7C576 224.2 574.4 225.2 572.7 226.1C570.1 227.4 567.5 228.1 564.9 227.9C560.6 227.6 555.9 224.4 556.4 216.8C556.6 213.5 557.5 211.1 558.5 209.1L560.1 209.7C559.4 211.1 559.1 212.7 559 214.3C558.7 218.4 561.1 222 565.7 222.3C567.8 222.4 569.9 222 571.8 221.3C573.5 220.7 575.1 219.9 576.1 219C576.1 218.6 574 218.1 571.5 217.5C568 216.8 566.6 215 566.8 212.4C567 209.7 568.2 207.1 570.4 205C572.8 202.7 575.4 201.2 577.7 201.3C580 201.5 580.6 204.3 580.5 205.9C580.4 206.9 579.8 208.3 578.8 210.1L578.1 210ZM562.6 230C563.9 231.1 565.1 232.3 566.2 233.7C565.3 235 564.3 236 563.4 236.8C562.2 235.5 561 234.3 559.8 233.2L562.6 230ZM569.1 230C570.4 231.1 571.6 232.3 572.7 233.7C571.8 235 570.8 236 569.9 236.8C568.7 235.5 567.5 234.3 566.3 233.2L569.1 230Z" fill="black"/>
<path d="M597.7 224.2L597.2 224.1C596.1 223.8 595.3 223.4 594.5 222.9C593.8 225.7 592.6 227.2 591.3 228.5C589.3 230.5 587.2 231.6 585 231.1C583 230.6 580.9 229.3 578.5 226.8L579.4 225.6C580.3 226.2 581.1 226.5 581.7 226.6C583.9 227.1 586.1 226.7 588.1 225.5C590.2 224.3 591.7 222.7 592.4 221.1C591.7 219.5 591 217.6 590.6 215.5C591.6 214.2 592.5 213 593.4 212L593.8 212.1C594.5 215.5 595.4 218 598.4 218.7L598.8 218.8L597.7 224.2ZM593.6 201.9C594.8 203.2 595.8 204.5 596.7 205.9C595.8 207.1 594.7 208 593.5 208.6C592.6 207.4 591.5 206.1 590.3 204.7L593.6 201.9Z" fill="black"/>
<path d="M609.601 210.3C612.201 215.1 612.601 217.4 611.401 220.4C610.801 221.9 609.701 223.3 608.401 224.6C606.501 226.4 602.601 226.2 597.101 224.1L596.701 224C595.501 223.5 595.401 222 595.901 220.7C596.401 219.5 597.401 218.3 598.701 218.8L599.101 218.9C604.201 220.9 608.101 221.4 608.501 220.2C609.301 218 607.001 213.7 603.201 208.2C603.301 206.9 603.501 205.8 603.901 204.8C604.501 203.1 605.801 202.2 607.901 202C611.101 201.7 616.601 201.8 623.001 202.1L623.101 202.3C621.901 203.5 620.601 204.6 619.301 205.7C614.401 205.4 610.101 205.3 606.301 205.5L606.201 205.7C607.901 206.8 609.501 207.7 611.101 208.6L609.601 210.3Z" fill="black"/>
<path d="M628 238.3L627.6 238.1C626.6 237.6 626 236.9 625.3 236.3C624 238.8 622.4 240 620.8 240.9C618.3 242.3 616 242.8 614 241.8C612.2 240.8 610.5 239 608.9 235.9L610.1 235C610.9 235.8 611.5 236.3 612.1 236.6C614.1 237.7 616.3 237.8 618.6 237.2C621 236.6 622.8 235.4 623.9 234.1C623.6 232.4 623.5 230.4 623.6 228.2C624.9 227.2 626.1 226.3 627.2 225.5L627.6 225.7C627.3 229.2 627.6 231.8 630.3 233.3L630.6 233.5L628 238.3Z" fill="black"/>
<path d="M633.5 239.8C631.5 239.9 629.5 239.4 627.5 237.9L627.2 237.7C626.1 236.9 626.5 235.4 627.3 234.3C628.1 233.2 629.4 232.4 630.5 233.2L630.8 233.4C632.6 234.7 634.4 235.7 636.1 235.9C638.5 232.2 640.8 228.7 643.3 225C644 223.9 644.7 222.4 645.4 221.5C646 220.7 646.7 220.1 647.5 219.9C648.3 219.7 649.2 219.5 650.4 219.5L650.5 219.9C649.4 221.4 649 223.8 648.6 227.6L645.5 227.7C642.2 232.4 640.6 234.6 639.5 236.4C640.7 236.7 641.7 237.2 642.4 237.7C644.6 239.3 645.4 242.6 642.9 245.9C641.5 247.9 637.8 250.2 634.6 247.9C632.6 246.4 631.9 243.5 633.5 239.8ZM638.6 245.5C638.9 245.7 639.4 245.9 639.8 245.8C641.1 243.6 640.2 241.6 638.9 240.7C638.3 240.3 637.7 240 637.1 239.9C636.5 242 637.1 244.4 638.6 245.5Z" fill="black"/>
<path d="M643.801 250.9C645.301 249.6 646.701 248.2 648.501 246.2C652.501 241.8 656.201 237.2 659.801 232.3C661.501 232.1 663.001 231.9 664.501 231.8L664.701 232.3C661.101 237.1 657.501 241.3 653.901 245.2C651.001 248.4 648.901 250.4 647.801 250.7C646.701 251.1 645.401 251.4 644.001 251.6L643.801 250.9Z" fill="black"/>
<path d="M661.299 279.1C658.199 278.8 655.299 277 653.499 274.2C650.399 269.5 652.499 264.8 656.699 262.1C658.699 260.8 661.599 259.7 664.599 259.7L664.799 261.3C662.599 261.6 661.099 262.2 660.299 262.7C658.799 263.7 657.599 264.9 657.299 267C657.199 268.7 657.499 270.2 658.499 271.7C659.599 273.4 661.199 274.5 662.899 275.2C664.299 275.8 665.599 276.1 666.499 275.8C667.999 274.7 669.399 272.7 670.699 269.5C672.399 269.3 674.099 269.2 675.899 269.2L675.999 269.5C675.199 270.9 674.299 272.2 673.299 273.6C672.599 274.6 672.299 275.2 672.999 276.3C673.399 276.9 674.099 277.3 674.999 277.5C675.999 277.7 677.299 277.4 678.799 277C679.599 277.4 680.499 277.8 681.299 278.3L681.199 278.6C679.299 279.1 677.699 279.6 677.299 279.9C676.799 280.2 676.599 280.5 676.499 280.8C676.299 281.4 676.499 281.8 676.699 282.1C677.299 283 678.199 283.5 679.399 283.6C680.599 283.7 682.099 283.2 683.699 282.8L685.899 283.8V284.1C684.599 284.5 683.299 284.9 682.599 285.3C681.499 286 681.199 286.6 681.199 287.4C681.199 288.4 681.699 289.6 682.499 290.7L682.699 291L678.099 294L677.899 293.7C676.299 291.3 675.499 288.6 676.699 287.1V287C674.499 286.6 672.799 285.9 671.999 284.5C671.299 283.4 671.099 282.1 672.099 280.5L671.999 280.4C669.899 280.3 668.399 279.3 667.399 277.7C665.099 278.8 663.099 279.3 661.299 279.1Z" fill="black"/>
<path d="M680.599 304.4L680.499 304C679.599 301.7 679.499 299.5 681.199 297.5V297.4C678.899 297 677.299 295.9 676.399 293.7L676.299 293.3C675.799 292.1 676.899 291 678.099 290.5C679.299 290 680.899 290 681.399 291.3L681.599 291.9C682.699 294.5 684.399 295.1 686.499 294.3C691.099 292.4 696.699 289.9 701.299 287.4C702.699 288 703.999 288.5 705.099 289.2V289.6C701.599 291.5 697.399 293.2 693.899 294.6C691.199 295.7 688.899 296.5 687.799 297C685.399 298 684.599 299 685.699 301.7L685.899 302.2L680.599 304.4Z" fill="black"/>
<path d="M677.4 310C676.9 311.7 676.2 313.2 675.5 314.7C674 314.5 672.7 314.1 671.5 313.3C672.1 311.9 672.7 310.3 673.3 308.6L677.4 310ZM698 305.6C695.3 308.4 693.2 310 691.5 310.5C690 311 688.3 311.2 686.4 310.9C684.6 310.5 683.6 309.9 682.9 309.1C682 308.1 681.1 306.5 680.4 304.1L680.3 303.7C679.9 302.4 681.1 301.4 682.4 301.1C683.7 300.7 685.2 300.9 685.6 302.1L685.8 302.7C686.7 305.7 688.2 308.2 688.6 308.1C689.2 307.9 691.5 305.7 693.2 303.9C695 304.3 696.7 304.8 698.1 305.3L698 305.6Z" fill="black"/>
<path d="M683.9 317.3C685.9 317.1 687.9 316.8 690.4 316.2C696.2 314.9 701.9 313.3 707.6 311.4C709.1 312.2 710.5 312.9 711.7 313.7L711.6 314.2C705.9 316 700.5 317.3 695.3 318.5C691.1 319.4 688.2 319.8 687.2 319.5C686.1 319.2 684.8 318.7 683.6 318L683.9 317.3Z" fill="black"/>
<path d="M687.799 340.1L687.699 339.6C687.599 338.5 687.699 337.6 687.899 336.7C685.099 337 683.199 336.4 681.499 335.7C678.899 334.5 677.199 332.9 676.899 330.7C676.699 328.7 677.199 326.2 678.699 323.1L680.099 323.5C679.899 324.6 679.899 325.4 679.899 326C680.199 328.3 681.299 330.1 683.099 331.6C684.999 333.2 686.999 334 688.699 334.2C689.899 333 691.499 331.7 693.399 330.6C694.899 331.1 696.399 331.5 697.699 332.1V332.5C694.699 334.3 692.699 336 693.099 339.1V339.5L687.799 340.1Z" fill="black"/>
<path d="M697.099 345.4C701.199 349.2 703.799 353 703.699 356.7C703.599 360.7 700.399 362.9 696.699 362.7C695.199 362.6 692.299 361.7 690.799 360.3C688.599 357.6 687.599 352.2 688.099 339.2V338.8C688.099 337.5 689.599 336.9 690.899 337C692.199 337 693.599 337.7 693.599 339L693.499 341.9L694.699 342.8C696.499 343.1 698.699 343.3 701.399 343.4C704.099 343.5 706.999 343.4 710.199 343.3C711.399 343.2 712.699 343 713.899 343C715.199 343 716.299 343.7 717.899 345.9L717.699 346.2C715.999 346.1 714.099 346.7 710.199 349L708.499 346.5C706.199 346.5 704.199 346.5 702.899 346.4C700.799 346.3 698.899 346 697.199 345.2L697.099 345.4ZM695.499 359.6C696.899 359.3 698.699 357.6 698.799 355.3C698.899 352.4 697.199 349 693.399 344.9C693.099 352.2 693.699 357.2 695.499 359.6Z" fill="black"/>
<path d="M682.4 401.8L677.2 400.1L677.7 398.7C677.3 398.6 676.8 398.5 676.4 398.4C675.4 398.1 674.299 397.1 673.099 395.8C671.099 391.1 671 385.8 672.2 382.2C674.2 376.2 679.1 373.7 685.4 375.7C688.6 376.7 691.6 378.9 694.5 381.9L693.3 383.1C691.1 381.2 689.3 380 687.7 379.5C682.4 377.8 678.7 380.2 677.2 384.8C676.1 388.1 675.899 391.6 677.099 395.7C678.499 395.1 679.9 392.5 681.3 388.7L681.9 388.5L685.4 392.3L682.4 401.8Z" fill="black"/>
<path d="M681.899 401.6C681.299 402.7 680.799 403.9 680.599 404.8C681.699 405.1 682.799 405.5 683.999 406.1C686.699 407.5 688.199 409.6 688.899 412.3C689.399 414.1 689.499 415.7 688.899 417C688.399 418 687.299 418.4 686.099 418.6C683.999 418.9 682.099 418.4 680.399 417.5C678.599 416.5 677.199 415.1 675.999 413.6C675.099 414.8 674.399 415.9 673.799 417L673.599 417.3L668.699 414.7L668.899 414.4C670.799 410.8 671.799 409.6 674.799 406.8C674.799 404.4 675.499 401.9 676.899 399.2L677.099 398.9C677.699 397.7 679.299 397.9 680.399 398.5C681.499 399.1 682.599 400.3 681.899 401.5V401.6ZM679.099 409.8C678.599 412.3 679.099 414.2 679.899 414.6C681.099 415.2 683.999 415.2 684.899 413.6C685.699 412 684.999 409.6 683.699 408C682.299 407.6 680.699 408.3 679.099 409.8ZM697.699 419.3C696.099 420.1 694.599 420.8 692.999 421.3C692.099 420.1 691.499 418.9 691.199 417.5C692.599 417 694.099 416.2 695.799 415.4L697.699 419.3Z" fill="black"/>
<path d="M652.9 436.1L653.1 435.8C655 433.4 656.9 432 658.9 432.4L659 432.3C658.5 430.1 658.8 428.3 659.8 427.1C660.7 425.9 662 425.5 663.5 426.1L663.6 426C663.3 423.9 663.4 422.4 664.5 421C665.3 419.9 666.4 419.4 667.9 419.9C667.8 417.8 668.4 415.8 669.7 414.1L669.9 413.8C670.7 412.7 672.2 413.1 673.3 413.9C674.3 414.7 675.1 416 674.3 417.1L674.1 417.4C672.7 419.2 672.1 420.7 672.1 422.1C672.1 423.1 672.5 424.2 673 425.7C672.9 426.5 672.7 427.4 672.4 428.3L672 428.4C671.5 426.7 670.9 425.4 670.2 424.9C669.4 424.3 668.8 424.5 668.2 425.2C667.5 426.2 667.4 427.1 667.5 427.9C667.7 429.4 668.5 430.3 669.1 431.6C669 432.5 668.8 433.2 668.6 434H668.2C667.3 432.5 666.6 431.2 666 430.7C665.1 430 664.3 430 663.8 430.7C663 431.7 663 432.8 663.2 433.8C663.5 435 664.6 436.2 665.4 437.4C665.4 438.2 665.3 439.1 665.1 440H664.8C663.9 438.7 663.1 437.8 662.4 437.2C660.9 436 659.3 436.6 657.4 439.1L657.2 439.4L652.9 436.1ZM675.2 441C673.5 441.4 672 441.6 670.6 441.7C670.1 440.5 669.9 439.3 669.8 437.9C671.3 437.7 672.8 437.4 674.3 437.1L675.2 441ZM678.6 436C676.9 436.4 675.4 436.6 674 436.7C673.5 435.5 673.3 434.2 673.2 432.9C674.7 432.7 676.2 432.4 677.7 432.1L678.6 436ZM682 441.5C680.3 441.9 678.8 442.1 677.4 442.2C676.9 441 676.7 439.7 676.6 438.4C678.1 438.2 679.6 437.9 681.1 437.6L682 441.5Z" fill="black"/>
<path d="M644.1 443.8L644.4 443.6C646.2 441.9 648.2 440.6 651 441.4L651.1 441.3C650.8 438.9 651.4 436.8 653.1 435.2L653.4 434.9C654.3 434 655.8 434.6 656.7 435.5C657.6 436.4 658.2 437.9 657.2 438.8L656.9 439.1C655.6 440.4 655.1 441.3 654.9 442.4C654.5 444.1 655.6 445.5 656 446.8C655.9 447.6 655.7 448.4 655.4 449.4H655.1C654.5 448.3 654.1 447.6 653.7 447.2C652.8 446.3 652 445.9 650.8 446.1C649.9 446.3 649 446.8 648.1 447.6L647.9 447.8L644.1 443.8ZM661.2 455.6C659.5 455.7 658 455.6 656.6 455.3C656.4 454.1 656.4 452.8 656.6 451.4C658.1 451.5 659.6 451.5 661.2 451.5V455.6ZM665.2 451.4C663.5 451.5 662 451.4 660.6 451.1C660.4 449.9 660.4 448.6 660.6 447.2C662.1 447.3 663.6 447.3 665.2 447.3V451.4Z" fill="black"/>
<path d="M622.5 459.9L622.8 459.7C625.3 457.9 627.5 457.2 629.3 458.1L629.4 458C629.6 455.8 630.4 454.2 631.7 453.2C632.9 452.3 634.2 452.3 635.5 453.3L635.6 453.2C635.9 451.1 636.5 449.7 637.9 448.7C639 447.9 640.2 447.7 641.5 448.7C642.1 446.6 643.2 444.9 644.9 443.7L645.2 443.5C646.3 442.7 647.6 443.5 648.4 444.6C649.2 445.7 649.5 447.2 648.4 448L648.1 448.2C646.2 449.5 645.2 450.8 644.8 452.1C644.5 453.1 644.6 454.3 644.6 455.8C644.2 456.5 643.8 457.3 643.3 458.1H642.9C642.9 456.3 642.7 454.9 642.2 454.2C641.6 453.4 640.9 453.4 640.2 453.9C639.2 454.6 638.9 455.5 638.7 456.3C638.5 457.8 639 458.9 639.2 460.4C638.9 461.2 638.5 461.9 638 462.6L637.7 462.5C637.3 460.8 637 459.3 636.6 458.7C635.9 457.7 635.2 457.6 634.5 458.1C633.4 458.9 633.1 459.8 633.1 460.9C633.1 462.2 633.7 463.6 634.1 464.9C633.8 465.7 633.5 466.5 633.1 467.3H632.8C632.3 465.8 631.9 464.7 631.3 463.9C630.2 462.3 628.5 462.4 625.9 464.2L625.6 464.4L622.5 459.9Z" fill="black"/>
<path d="M620.501 463.8C620.301 461.6 621.201 459.9 623.201 458.9L623.501 458.7C624.601 458.2 625.801 459.1 626.401 460.4C627.001 461.6 627.001 463.1 625.901 463.7L625.601 463.9C624.801 464.3 624.201 464.9 623.801 465.6C622.501 467.7 624.601 471 623.201 474.4C622.601 475.9 621.701 476.9 620.601 477.4C616.501 479.4 612.001 473.7 610.701 471C610.501 470.7 609.301 465.9 612.601 464.3C614.501 463.4 617.301 463.2 620.501 463.8ZM614.101 469.4C613.601 469.6 613.401 469.8 613.401 470C615.301 472.5 617.601 473.6 619.301 472.8C620.601 472.2 621.101 470.9 621.201 469.3C618.401 468.5 616.101 468.5 614.101 469.4Z" fill="black"/>
</svg>
